<svg width="48" height="48" data-testid="uniswap-logo" class="rgw6ez411 rgw6ez4av" fill="none" xmlns="http://www.w3.org/2000/svg"><path fill-rule="evenodd" clip-rule="evenodd" d="m20.4 20-.4.6c-.2.3-.6.6-1 .7a4 4 0 0 1-1.1.3h-.3a1.2 1.2 0 0 0-1 1l-.1.3v.6l-.1.5a6.2 6.2 0 0 1-.8 2.3c-.3.7-.6 1.3-.5 2 0 .7.4 1 .8 1.5l.7.6c.8.5 1.6 1 1.4 2.4-.3 1.2-2.2 2.4-4.8 2.8.3 0-.3-1-.4-1.1l-.2-.4-.6-1c-.4-1-.6-2-.5-3 .2-1 .8-1.7 1.4-2.4l.3-.4a8 8 0 0 0 1.8-3.9l.1-.7.4-1.2.6-.7a.7.7 0 0 0 0-.8L12 12.4l6 7.5a.8.8 0 0 0 1.2 0 .5.5 0 0 0 0-.7l-.9-1c0-.2-.2-.3-.3-.5l-1.5-1.9-3.1-3.8L10 8l3.8 3.7 3.2 3.6 1.7 1.8.4.5 1.2 1.4v1Zm15.5 2.5c0-.8-.5-2.2-1.5-3.4a10 10 0 0 0-2.7-2.4c-1.8-1-4-1.4-6.7-.9l-1.2-1.3a6.8 6.8 0 0 0-2.3-1.4c-.8-.3-1.7-.4-2.5-.3a6.7 6.7 0 0 1 4.3 2.2l1.6 2 .1.1 1.6 1.9a5.5 5.5 0 0 0 2.4 1.3l2.6.4h1.3l1.2.2a3 3 0 0 1 1.5 1l.3.6Zm-2.5-4.6h-.1l-.1-.2v.1l.2.1Zm-1 8c-2.8-1.1-5.7-2.3-5.3-5.6 1 1 2.4 1.2 4 1.4 1.4.2 3 .4 4.3 1.3 3.1 2 2.7 5.8 1.6 7.2 0-2.3-2.2-3.3-4.7-4.3Zm-11.2-1.6c.7-.1 2.2-.5 1.5-1.7a1.6 1.6 0 0 0-1.4-.8A1.4 1.4 0 0 0 20 23c-.2.8 0 1.5 1.2 1.4Zm-.3-9.8a3 3 0 0 0-1.8-1v.6a6 6 0 0 0 1.4 4.2l1.1.8c.3.2 1 .5 1.2.2a.2.2 0 0 0 0-.2l-.2-.3-.1-.2-.2-.3-.2-.4c-.2-.4-.3-.8-.3-1.3v-.2a4 4 0 0 0-.9-1.9Zm9.9 11.6c-.8 2 .4 3.7 1.5 5.4 1.3 1.8 2.6 3.7 1.2 6a5.4 5.4 0 0 0 2.8-7c-.7-1.7-2.3-2.6-3.9-3.4l-1.6-1ZM23 30.9a6 6 0 0 0-1.4.7l3-.6h1.5c.5 0 1-.2 1.5-.4.5-.1 1-.4 1.4-.8a3.1 3.1 0 0 0 .8-3.1c-.1-.6-.4-1-.8-1.4.2.4.3 1 .3 1.4l-.1 1.4c-.2.4-.4.7-.8 1l-1 .7c-.7.3-1.3.4-2 .5a22 22 0 0 0-2.4.6Zm8.2 8.2-.4.3a4 4 0 0 1-.5.3c-.4.2-.8.3-1.3.3-1.1 0-2-.9-2.4-1.8l-.3-.8-.6-1.3c-.6-.9-1.5-1.6-2.6-1.4-.4 0-.9.2-1.1.6-.7 1 .3 2.5 1.5 2.3l.3-.1.2-.2.4-.5V36a1 1 0 0 0-.3-.6c.2.1.4.3.5.6v.7c0 .3-.1.6-.3.8l-.3.3-.4.1c-.3.1-.6.2-.9.1a2.2 2.2 0 0 1-1.2-.6 4 4 0 0 1-.6-.6 6 6 0 0 0-1.6-1.2 5 5 0 0 0-1.6-.5h-.6c.6-.6 1.2-1 2-1.5.6-.4 1.4-.7 2.1-1 .9-.1 1.7-.2 2.5-.1.5 0 .9.2 1.3.3l1.1.7c.4.4.6.7.8 1.2a5.8 5.8 0 0 1 .5 2c.2 1 .4 2.4 1.7 2.7h1.1l1-.4ZM21.1 37Z" fill="#ffffff"/></svg>